<svg width="250" height="166" viewBox="0 0 250 166" fill="none" xmlns="http://www.w3.org/2000/svg">
<path d="M180.5 150C195 159.224 221.5 159.224 221.5 159.224C258.937 159.224 258.937 101.656 221.5 101.656C221.5 101.656 215.5 104 198 92C180.5 80 174 14 109.283 11.0904C109.283 11.0904 82.8656 8.47183 71.3021 31.4267C67.6111 35.1408 64.2384 37.2631 59.2293 37.2631L31.5176 37.2631C31.5176 37.2631 6.99913 42.8342 6.99912 69.8941C6.99912 96.954 30.7267 103.586 30.7267 103.586C30.7267 103.586 18.9085 139.398 45.6732 156.98C45.6732 156.98 69.3097 175.684 114.149 159.224C155 140.5 166 140.776 180.5 150Z" fill="#EBEDF6"/>
<path d="M211.429 144.323H22.6987V35.4587C22.6987 31.6389 25.7592 28.4557 29.7124 28.4557H204.543C208.368 28.4557 211.556 31.5115 211.556 35.4587V144.323H211.429Z" fill="#787D81"/>
<path d="M205.308 35.4587H28.6921V137.32H205.308V35.4587Z" fill="#2F2F2F"/>
<path d="M229.537 154H5.48338C2.04033 154 0 152.727 0 151.199V143.814H234V151.199C234 152.727 231.96 154 229.537 154Z" fill="#B3B3B3"/>
<path d="M234 143.687H0V150.817H234V143.687Z" fill="#F8F8F8"/>
<path d="M131.346 146.36H102.654C101.379 146.36 100.359 145.342 100.359 144.068V143.687H133.641V144.068C133.641 145.342 132.621 146.36 131.346 146.36Z" fill="#B3B3B3"/>
<path d="M204.5 67C223.002 67 238 52.0015 238 33.5C238 14.9985 223.002 0 204.5 0C185.998 0 171 14.9985 171 33.5C171 52.0015 185.998 67 204.5 67Z" fill="#38B649"/>
<path d="M199.829 47.512L186.623 35.5938C185.495 34.6274 185.495 33.0168 186.462 31.8894C187.428 30.762 189.039 30.762 190.166 31.7284L199.829 40.4255L220.284 20.9375C221.411 19.9712 223.022 19.9712 223.988 21.0986C224.954 22.226 224.954 23.8365 223.827 24.8029L199.829 47.512Z" fill="white"/>
<rect x="88.5" y="107.5" width="56" height="14.675" rx="1.5" fill="white" stroke="#DBDBDB"/>
<path d="M94.3646 117.028L95.6872 115.171L93.7 114.565L94.0092 113.556L95.9965 114.302L95.9372 111.988H96.9374L96.8716 114.343L98.8325 113.596L99.1352 114.626L97.1151 115.238L98.4114 117.062L97.5955 117.688L96.3781 115.749L95.1871 117.64L94.3646 117.028Z" fill="#3A3A3A"/>
<path d="M99.8988 117.028L101.221 115.171L99.2342 114.565L99.5435 113.556L101.531 114.302L101.471 111.988H102.472L102.406 114.343L104.367 113.596L104.669 114.626L102.649 115.238L103.946 117.062L103.13 117.688L101.912 115.749L100.721 117.64L99.8988 117.028Z" fill="#3A3A3A"/>
<path d="M105.433 117.028L106.756 115.171L104.768 114.565L105.078 113.556L107.065 114.302L107.006 111.988H108.006L107.94 114.343L109.901 113.596L110.204 114.626L108.184 115.238L109.48 117.062L108.664 117.688L107.447 115.749L106.256 117.64L105.433 117.028Z" fill="#3A3A3A"/>
<path d="M110.967 117.028L112.29 115.171L110.303 114.565L110.612 113.556L112.599 114.302L112.54 111.988H113.54L113.474 114.343L115.435 113.596L115.738 114.626L113.718 115.238L115.014 117.062L114.198 117.688L112.981 115.749L111.79 117.64L110.967 117.028Z" fill="#3A3A3A"/>
<path d="M116.502 117.028L117.824 115.171L115.837 114.565L116.146 113.556L118.133 114.302L118.074 111.988H119.074L119.009 114.343L120.97 113.596L121.272 114.626L119.252 115.238L120.548 117.062L119.732 117.688L118.515 115.749L117.324 117.64L116.502 117.028Z" fill="#3A3A3A"/>
<path d="M122.036 117.028L123.358 115.171L121.371 114.565L121.68 113.556L123.668 114.302L123.608 111.988H124.609L124.543 114.343L126.504 113.596L126.806 114.626L124.786 115.238L126.083 117.062L125.267 117.688L124.049 115.749L122.858 117.64L122.036 117.028Z" fill="#3A3A3A"/>
<path d="M127.57 117.028L128.893 115.171L126.905 114.565L127.215 113.556L129.202 114.302L129.143 111.988H130.143L130.077 114.343L132.038 113.596L132.341 114.626L130.321 115.238L131.617 117.062L130.801 117.688L129.584 115.749L128.393 117.64L127.57 117.028Z" fill="#3A3A3A"/>
<path d="M133.104 117.028L134.427 115.171L132.44 114.565L132.749 113.556L134.736 114.302L134.677 111.988H135.677L135.611 114.343L137.572 113.596L137.875 114.626L135.855 115.238L137.151 117.062L136.335 117.688L135.118 115.749L133.927 117.64L133.104 117.028Z" fill="#3A3A3A"/>
<path d="M123.43 73.222H123.347V69.3567C123.347 66.171 120.829 63.5375 117.693 63.5375C114.597 63.5375 112.038 66.171 112.038 69.3567V73.222H111.708C111.213 73.222 110.8 73.6468 110.8 74.1565V84.6905C110.8 85.2002 111.213 85.625 111.708 85.625H123.43C123.925 85.625 124.338 85.2002 124.338 84.6905V74.1565C124.338 73.6468 123.925 73.222 123.43 73.222ZM113.276 69.3567C113.276 66.8506 115.258 64.8118 117.693 64.8118C120.128 64.8118 122.109 66.8506 122.109 69.3567V73.222H113.276V69.3567ZM119.22 82.0145C119.302 82.3968 118.972 82.7791 118.601 82.7791H116.991C116.578 82.7791 116.289 82.3968 116.372 82.0145L117.156 78.9987C116.661 78.7439 116.331 78.2342 116.331 77.6395C116.331 76.79 116.991 76.1104 117.816 76.1104C118.642 76.1104 119.302 76.79 119.302 77.6395C119.302 78.2342 118.972 78.7439 118.477 78.9987L119.22 82.0145Z" fill="#FFBF1A"/>
<path d="M122.157 56.9627C122.506 56.7393 122.608 56.2754 122.384 55.9266L118.744 50.2424C118.52 49.8936 118.057 49.7919 117.708 50.0153C117.359 50.2387 117.257 50.7026 117.481 51.0514L120.716 56.104L115.664 59.3399C115.315 59.5633 115.213 60.0271 115.437 60.3759C115.66 60.7248 116.124 60.8264 116.473 60.603L122.157 56.9627ZM104.389 88.4747C97.1038 81.1897 97.1038 69.3783 104.389 62.0933L103.328 61.0326C95.4573 68.9035 95.4573 81.6646 103.328 89.5354L104.389 88.4747ZM104.389 62.0933C109.058 57.4246 115.585 55.7471 121.592 57.0637L121.913 55.5985C115.428 54.177 108.373 55.9874 103.328 61.0326L104.389 62.0933Z" fill="white"/>
<path d="M112.98 93.7268C112.632 93.9502 112.53 94.414 112.753 94.7629L116.394 100.447C116.617 100.796 117.081 100.898 117.43 100.674C117.779 100.451 117.88 99.9869 117.657 99.6381L114.421 94.5855L119.474 91.3496C119.822 91.1262 119.924 90.6623 119.701 90.3135C119.477 89.9647 119.013 89.863 118.665 90.0864L112.98 93.7268ZM130.749 62.2148C138.034 69.4998 138.034 81.3111 130.749 88.5962L131.809 89.6568C139.68 81.786 139.68 69.0249 131.809 61.1541L130.749 62.2148ZM130.749 88.5962C126.08 93.2649 119.552 94.9424 113.545 93.6258L113.224 95.091C119.709 96.5125 126.764 94.7021 131.809 89.6568L130.749 88.5962Z" fill="white"/>
</svg>
