<svg width="250" height="183" viewBox="0 0 250 183" fill="none" xmlns="http://www.w3.org/2000/svg">
<path d="M180.5 167C195 176.224 221.5 176.224 221.5 176.224C258.937 176.224 258.937 118.656 221.5 118.656C221.5 118.656 215.5 121 198 109C180.5 97 174 31 109.283 28.0904C109.283 28.0904 82.8656 25.4718 71.3021 48.4267C67.6111 52.1407 64.2384 54.2631 59.2293 54.2631L31.5176 54.2631C31.5176 54.2631 6.99913 59.8342 6.99912 86.8941C6.99912 113.954 30.7267 120.586 30.7267 120.586C30.7267 120.586 18.9085 156.398 45.6732 173.98C45.6732 173.98 69.3097 192.684 114.149 176.224C155 157.5 166 157.776 180.5 167Z" fill="#EBEDF6"/>
<path d="M211.429 161.323H22.6986V52.4587C22.6986 48.6389 25.7591 45.4557 29.7122 45.4557H204.543C208.368 45.4557 211.556 48.5115 211.556 52.4587V161.323H211.429Z" fill="#787D81"/>
<path d="M205.308 52.4587H28.6921V154.32H205.308V52.4587Z" fill="#2F2F2F"/>
<path d="M229.537 171H5.48338C2.04033 171 0 169.727 0 168.199V160.814H234V168.199C234 169.727 231.96 171 229.537 171Z" fill="#B3B3B3"/>
<path d="M234 160.687H0V167.817H234V160.687Z" fill="#F8F8F8"/>
<path d="M131.346 163.36H102.654C101.379 163.36 100.359 162.342 100.359 161.068V160.687H133.641V161.068C133.641 162.342 132.621 163.36 131.346 163.36Z" fill="#B3B3B3"/>
<path d="M116.044 123.38C93.2174 109.756 69.8812 90.9114 69.7537 55.0052V16.2978L117.446 2.67386L164.246 16.2978V55.0052C164.374 85.309 147.669 110.265 118.466 123.507L117.191 124.016L116.044 123.38Z" fill="url(#paint0_linear_57_1104)"/>
<path d="M117.446 5.34773L161.823 18.2077V55.0052C161.951 86.9643 142.695 109.756 117.446 121.215C91.0496 105.427 72.4316 86.9643 72.3041 55.0052V18.2077L117.446 5.34773ZM117.446 0L116.044 0.381981L70.9013 13.242L67.2032 14.2606V18.0804V54.8779C67.3308 92.1847 91.3046 111.538 114.768 125.544L117.064 126.945L119.487 125.799C133.386 119.56 144.991 110.138 153.152 98.6783C162.206 85.9456 166.797 71.1757 166.797 54.8779V18.0804V14.2606L163.099 13.242L118.849 0.381981L117.446 0Z" fill="white"/>
<path d="M132.578 52.9923H132.359V43.0173C132.359 34.6865 125.555 28 117.325 28C108.986 28 102.292 34.7962 102.292 43.0173V52.9923H101.414C100.097 52.9923 99 54.0885 99 55.4038V82.5885C99 83.9038 100.097 85 101.414 85H132.578C133.895 85 134.992 83.9038 134.992 82.5885V55.4038C135.102 54.0885 134.005 52.9923 132.578 52.9923ZM105.584 43.0173C105.584 36.55 110.851 31.2885 117.325 31.2885C123.8 31.2885 129.067 36.55 129.067 43.0173V52.9923H105.584V43.0173ZM121.495 75.7923C121.715 76.7788 120.837 77.7654 119.849 77.7654H115.57C114.472 77.7654 113.704 76.7788 113.924 75.7923L116.009 68.0096C114.692 67.3519 113.814 66.0365 113.814 64.5019C113.814 62.3096 115.57 60.5558 117.764 60.5558C119.959 60.5558 121.715 62.3096 121.715 64.5019C121.715 66.0365 120.837 67.3519 119.52 68.0096L121.495 75.7923Z" fill="white"/>
<defs>
<linearGradient id="paint0_linear_57_1104" x1="117" y1="2.67386" x2="117" y2="124.016" gradientUnits="userSpaceOnUse">
<stop stop-color="#FD4F0A"/>
<stop offset="1" stop-color="#E34604"/>
</linearGradient>
</defs>
</svg>
