<svg width="228" height="203" viewBox="0 0 228 203" fill="none" xmlns="http://www.w3.org/2000/svg">
<path d="M94.2243 28.8916C94.2243 28.8916 81.5098 46.5515 48.3279 49.6498C15.1461 52.748 -8.73245 72.5767 3.05176 110.375C14.836 148.174 -24.8582 193.098 46.7774 202.083C118.413 211.068 90.503 151.272 130.197 142.597C169.891 133.922 179.195 156.539 207.725 130.514C236.255 104.489 232.224 55.5364 210.826 24.554C189.428 -6.42834 129.577 -11.3855 94.2243 28.8916Z" fill="#EBEDF6"/>
<path d="M70.3148 37.6716C82.545 35.4331 91.1686 26.5782 89.5761 17.8936C87.9836 9.20911 76.778 3.98363 64.5478 6.22219C52.3175 8.46075 43.6939 17.3157 45.2865 26.0002C46.879 34.6847 58.0845 39.9102 70.3148 37.6716Z" fill="#EBEDF6"/>
<path d="M132.462 180.421C134.874 175.773 133.871 170.472 130.222 168.582C126.573 166.691 121.659 168.927 119.247 173.576C116.834 178.224 117.837 183.525 121.486 185.415C125.136 187.306 130.049 185.07 132.462 180.421Z" fill="#EBEDF6"/>
<path d="M116.745 191.066C118.829 188.797 119.188 185.738 117.547 184.234C115.906 182.73 112.887 183.351 110.803 185.621C108.719 187.89 108.36 190.949 110 192.453C111.641 193.957 114.66 193.336 116.745 191.066Z" fill="#EBEDF6"/>
<path d="M199.662 168.003H40.6993V67.3098C40.6993 63.9637 43.4283 61.2372 46.7775 61.2372H193.584C196.933 61.2372 199.662 63.9637 199.662 67.3098V168.003Z" fill="#605F5F"/>
<path d="M215.276 175.98H24.8106C21.7086 175.98 19.2269 172.714 19.2269 168.631V166.916C19.2269 166.099 19.7233 165.446 20.3437 165.446H219.681C220.301 165.446 220.798 166.099 220.798 166.916V168.712C220.86 172.714 218.316 175.98 215.276 175.98Z" fill="#F8F8F8"/>
<path d="M213.518 175.98H26.5682C23.5235 175.98 21.0876 175.211 21.0876 174.251V173.847C21.0876 173.655 21.5748 173.501 22.1838 173.501H217.841C218.45 173.501 218.937 173.655 218.937 173.847V174.27C218.998 175.211 216.501 175.98 213.518 175.98Z" fill="#B3B3B3"/>
<path d="M133.948 167.924H106.078C104.02 167.924 102.337 166.809 102.337 165.446H137.689C137.689 166.809 136.006 167.924 133.948 167.924Z" fill="#B3B3B3"/>
<path d="M189.118 156.477H51.2429V67.2479L120.274 11.2317L189.118 67.2479V156.477Z" fill="url(#paint0_linear_142_213)"/>
<path d="M173.179 22.0136H66.3143V136.463H173.179V22.0136Z" fill="white"/>
<path d="M119.517 39.5496H80.6288V41.4086H119.517V39.5496Z" fill="#CCCCCC"/>
<path d="M112.645 52.1284H80.8275V54.1733H112.645V52.1284Z" fill="#CCCCCC"/>
<path d="M159.41 52.1284H117.607V54.1733H159.41V52.1284Z" fill="#CCCCCC"/>
<path d="M112.645 61.2373H80.8275V63.2821H112.645V61.2373Z" fill="#CCCCCC"/>
<path d="M159.41 61.2373H117.607V63.2821H159.41V61.2373Z" fill="#CCCCCC"/>
<path d="M103.155 70.656H80.8275V72.7008H103.155V70.656Z" fill="#CCCCCC"/>
<path d="M159.472 70.656H117.669V72.7008H159.472V70.656Z" fill="#CCCCCC"/>
<path d="M93.6041 80.0746H80.8275V82.1194H93.6041V80.0746Z" fill="#CCCCCC"/>
<path d="M159.472 80.0746H98.876V82.1194H159.472V80.0746Z" fill="#CCCCCC"/>
<path d="M104.272 89.3073H80.8275V91.3521H104.272V89.3073Z" fill="#CCCCCC"/>
<path d="M159.472 89.3073H108.179V91.3521H159.472V89.3073Z" fill="#CCCCCC"/>
<path d="M113.699 98.7259H80.8275V100.771H113.699V98.7259Z" fill="#CCCCCC"/>
<path d="M159.472 98.7259H116.924V100.771H159.472V98.7259Z" fill="#CCCCCC"/>
<path d="M160.092 107.649H117.545V109.694H160.092V107.649Z" fill="#CCCCCC"/>
<path d="M104.644 66.2565L114.382 75.861L159.348 29.2015L168.837 38.1864L114.568 95.194L95.0306 75.6751L104.644 66.2565Z" fill="#39B54A"/>
<path d="M51.2429 67.2479L119.033 123.016L189.118 67.2479V156.477H51.2429V67.2479Z" fill="url(#paint1_linear_142_213)"/>
<path d="M189.118 156.477H51.2429L120.088 99.6554L189.118 156.477Z" fill="url(#paint2_linear_142_213)"/>
<defs>
<linearGradient id="paint0_linear_142_213" x1="120.183" y1="156.452" x2="120.183" y2="11.2477" gradientUnits="userSpaceOnUse">
<stop stop-color="#239BCF"/>
<stop offset="1" stop-color="#36BFE9"/>
</linearGradient>
<linearGradient id="paint1_linear_142_213" x1="120.183" y1="156.452" x2="120.183" y2="67.2226" gradientUnits="userSpaceOnUse">
<stop stop-color="#239BCF"/>
<stop offset="1" stop-color="#36BFE9"/>
</linearGradient>
<linearGradient id="paint2_linear_142_213" x1="120.183" y1="156.452" x2="120.183" y2="99.6507" gradientUnits="userSpaceOnUse">
<stop stop-color="#239BCF"/>
<stop offset="1" stop-color="#36BFE9"/>
</linearGradient>
</defs>
</svg>
