<svg width="198" height="187" viewBox="0 0 198 187" fill="none" xmlns="http://www.w3.org/2000/svg">
<g id="Ilustration">
<path id="Vector" d="M56.2046 40.4286H30.5274C-9.9856 40.4286 -9.9856 102.429 30.5274 102.429H52.781C52.781 102.429 35.0922 163.286 107.559 172.429C107.559 172.429 133.807 174.143 148.072 159.857C152.066 155.857 157.202 153.571 162.622 153.571H171.467C171.467 153.571 198 147.571 198 118.429C198 89.2857 172.323 82.1429 172.323 82.1429C172.323 82.1429 183.735 47.2857 155.49 28.1429C155.49 28.1429 137.801 5.85715 102.709 9.28572C67.6167 12.7143 56.2046 40.4286 56.2046 40.4286Z" fill="#EBEDF6"/>
<path id="Vector_2" d="M118.115 76.7143C117.545 74.7143 116.974 73 116.118 71.2857C114.692 67.8571 112.695 64.7143 110.127 61.8571C108.415 60.1429 106.703 58.4286 104.706 57.2857C97.0029 51.5714 87.3026 49.5714 78.1729 51.2857C76.1758 51.5714 74.464 52.1429 72.4669 52.7143C67.6167 54.4286 63.3372 57 59.6282 61C48.7867 71.8571 46.5043 87.8571 52.781 101L10.8415 142.429V157H27.389L35.6628 148.714L37.6599 150.714L43.9366 144.429L41.9395 142.429L46.7896 137.286L48.7867 139.286L55.0634 133L53.0663 131L59.3429 124.714L60.1988 125.571C61.9107 127.286 64.7637 127.286 66.4755 125.571L73.3228 118.714C78.7435 120.429 84.1643 120.714 89.585 119.857C96.7176 118.714 103.565 115.571 108.7 109.857C118.115 101.286 120.968 88.4286 118.115 76.7143ZM98.1441 81C97.8588 81 97.5735 81 97.5735 81L98.4294 75.2857C98.7147 75.2857 99 75.2857 99.2853 75.2857C98.4294 76.7143 98.1441 78.1429 98.1441 79.8571C97.8588 80.1429 97.8588 80.7143 98.1441 81Z" fill="#787D81"/>
<path id="Vector_3" d="M128.929 64.8188L128.933 64.8215C136.8 71.0117 141.581 80.5807 141.581 91.2857C141.581 105.923 132.306 118.313 119.086 123.101L118.756 123.221V123.571V176.793L109.271 186.292L98.3588 175.365V164.143V163.643H97.8588H95.5057V156.071H97.8588H98.3588V155.571V152.714V152.214H97.8588H95.5057V144.643H97.8588H98.3588V144.143V135.571V135.071H97.8588H92.6527V121.857V121.59L92.4303 121.441C91.9924 121.149 91.6273 120.93 91.2715 120.716L91.269 120.714C90.9123 120.5 90.5649 120.291 90.1479 120.013L90.1407 120.008L90.1333 120.003C80.5737 114.09 74.108 103.391 74.108 91.2857C74.108 73.8306 87.3202 59.4726 104.47 57.7833L104.506 57.7797L104.542 57.7707C105.614 57.5024 106.694 57.5 107.844 57.5C113.741 57.5 119.367 59.1877 124.158 61.7275L124.158 61.7276L124.168 61.7328C125.843 62.5717 127.526 63.6942 128.929 64.8188ZM97.3588 81V81.0293L97.3622 81.0583C97.9617 86.1614 102.449 90.3571 107.844 90.3571C113.836 90.3571 118.33 85.5518 118.33 79.8571V79.8091C118.33 78.7092 118.33 77.7834 118.023 76.8526C117.425 74.7654 116.231 72.9656 114.723 71.7558C112.918 70.2513 110.523 69.3571 107.844 69.3571C103.96 69.3571 100.364 71.4511 98.5612 75.0452C97.6544 76.5662 97.3588 78.0856 97.3588 79.8571V79.8588V79.8605V79.8622V79.8639V79.8656V79.8673V79.869V79.8707V79.8725V79.8742V79.8759V79.8777V79.8794V79.8812V79.883V79.8847V79.8865V79.8883V79.8901V79.8919V79.8937V79.8955V79.8973V79.8991V79.901V79.9028V79.9046V79.9065V79.9083V79.9102V79.9121V79.9139V79.9158V79.9177V79.9196V79.9214V79.9233V79.9252V79.9272V79.9291V79.931V79.9329V79.9348V79.9368V79.9387V79.9407V79.9426V79.9446V79.9465V79.9485V79.9505V79.9524V79.9544V79.9564V79.9584V79.9604V79.9624V79.9644V79.9664V79.9684V79.9705V79.9725V79.9745V79.9766V79.9786V79.9807V79.9827V79.9848V79.9868V79.9889V79.991V79.993V79.9951V79.9972V79.9993V80.0014V80.0035V80.0056V80.0077V80.0098V80.0119V80.0141V80.0162V80.0183V80.0205V80.0226V80.0247V80.0269V80.029V80.0312V80.0334V80.0355V80.0377V80.0399V80.042V80.0442V80.0464V80.0486V80.0508V80.053V80.0552V80.0574V80.0596V80.0618V80.064V80.0663V80.0685V80.0707V80.073V80.0752V80.0774V80.0797V80.0819V80.0842V80.0864V80.0887V80.091V80.0932V80.0955V80.0978V80.1V80.1023V80.1046V80.1069V80.1092V80.1115V80.1138V80.1161V80.1184V80.1207V80.123V80.1253V80.1276V80.1299V80.1323V80.1346V80.1369V80.1392V80.1416V80.1439V80.1463V80.1486V80.151V80.1533V80.1557V80.158V80.1604V80.1627V80.1651V80.1675V80.1698V80.1722V80.1746V80.177V80.1793V80.1817V80.1841V80.1865V80.1889V80.1913V80.1937V80.1961V80.1985V80.2009V80.2033V80.2057V80.2081V80.2105V80.2129V80.2153V80.2177V80.2202V80.2226V80.225V80.2274V80.2299V80.2323V80.2347V80.2372V80.2396V80.242V80.2445V80.2469V80.2494V80.2518V80.2543V80.2567V80.2592V80.2616V80.2641V80.2665V80.269V80.2714V80.2739V80.2764V80.2788V80.2813V80.2838V80.2862V80.2887V80.2912V80.2936V80.2961V80.2986V80.3011V80.3035V80.306V80.3085V80.311V80.3135V80.316V80.3184V80.3209V80.3234V80.3259V80.3284V80.3309V80.3334V80.3359V80.3384V80.3409V80.3434V80.3459V80.3484V80.3509V80.3534V80.3559V80.3584V80.3609V80.3634V80.3659V80.3684V80.3709V80.3734V80.3759V80.3784V80.3809V80.3834V80.3859V80.3884V80.3909V80.3934V80.3959V80.3984V80.401V80.4035V80.406V80.4085V80.411V80.4135V80.416V80.4185V80.421V80.4235V80.4261V80.4286V80.4311V80.4336V80.4361V80.4386V80.4411V80.4436V80.4461V80.4487V80.4512V80.4537V80.4562V80.4587V80.4612V80.4637V80.4662V80.4687V80.4712V80.4737V80.4763V80.4788V80.4813V80.4838V80.4863V80.4888V80.4913V80.4938V80.4963V80.4988V80.5013V80.5038V80.5063V80.5088V80.5113V80.5138V80.5163V80.5188V80.5213V80.5238V80.5263V80.5287V80.5312V80.5337V80.5362V80.5387V80.5412V80.5437V80.5462V80.5486V80.5511V80.5536V80.5561V80.5586V80.561V80.5635V80.566V80.5684V80.5709V80.5734V80.5759V80.5783V80.5808V80.5832V80.5857V80.5882V80.5906V80.5931V80.5955V80.598V80.6004V80.6029V80.6053V80.6078V80.6102V80.6127V80.6151V80.6175V80.62V80.6224V80.6249V80.6273V80.6297V80.6321V80.6346V80.637V80.6394V80.6418V80.6442V80.6467V80.6491V80.6515V80.6539V80.6563V80.6587V80.6611V80.6635V80.6659V80.6683V80.6707V80.673V80.6754V80.6778V80.6802V80.6826V80.6849V80.6873V80.6897V80.692V80.6944V80.6968V80.6991V80.7015V80.7038V80.7062V80.7085V80.7109V80.7132V80.7156V80.7179V80.7202V80.7226V80.7249V80.7272V80.7295V80.7318V80.7342V80.7365V80.7388V80.7411V80.7434V80.7457V80.748V80.7503V80.7525V80.7548V80.7571V80.7594V80.7617V80.7639V80.7662V80.7685V80.7707V80.773V80.7752V80.7775V80.7797V80.7819V80.7842V80.7864V80.7887V80.7909V80.7931V80.7953V80.7975V80.7997V80.8019V80.8041V80.8063V80.8085V80.8107V80.8129V80.8151V80.8173V80.8195V80.8216V80.8238V80.8259V80.8281V80.8303V80.8324V80.8346V80.8367V80.8388V80.841V80.8431V80.8452V80.8473V80.8494V80.8515V80.8537V80.8558V80.8578V80.8599V80.862V80.8641V80.8662V80.8683V80.8703V80.8724V80.8744V80.8765V80.8785V80.8806V80.8826V80.8847V80.8867V80.8887V80.8907V80.8927V80.8947V80.8967V80.8987V80.9007V80.9027V80.9047V80.9067V80.9087V80.9106V80.9126V80.9145V80.9165V80.9184V80.9204V80.9223V80.9242V80.9262V80.9281V80.93V80.9319V80.9338V80.9357V80.9376V80.9395V80.9413V80.9432V80.9451V80.9469V80.9488V80.9507V80.9525V80.9543V80.9562V80.958V80.9598V80.9616V80.9634V80.9652V80.967V80.9688V80.9706V80.9724V80.9742V80.9759V80.9777V80.9794V80.9812V80.9829V80.9847V80.9864V80.9881V80.9898V80.9915V80.9933V80.9949V80.9966V80.9983V81Z" fill="white" stroke="#D1D1D1"/>
<g id="Group">
<path id="Vector_4" d="M132.095 51.2857C132.095 55.8571 130.954 60.4286 128.957 64.4286C126.389 69.5714 122.68 73.8571 117.83 76.7143C117.545 76.7143 117.545 77 117.259 77C112.695 79.5714 107.559 81.2857 101.853 81.2857C100.712 81.2857 98.9265 81.2857 97.5 81C97.5 80.7143 97.5735 80.1429 97.5735 79.8571C97.5735 78.1429 97.8588 76.7143 98.7147 75.2857C99.8559 75.2857 100.997 75.5714 101.853 75.5714C106.133 75.5714 110.412 74.4286 114.121 72.1429C114.692 71.8571 115.262 71.5714 115.833 71C119.542 68.4286 122.395 65 124.107 61C125.533 57.8571 126.104 54.7143 126.104 51C126.104 37.5714 115.262 26.7143 101.853 26.7143C88.4438 26.7143 77.6023 37.5714 77.6023 51C75.6052 51.2857 73.8934 51.8571 71.8962 52.4286V51C71.8962 34.4286 85.3055 21 101.853 21C118.401 21 132.095 34.7143 132.095 51.2857Z" fill="#B3B3B3"/>
</g>
<g id="Group_2">
<path id="Vector_5" d="M147.787 61C164.331 61 177.743 47.5685 177.743 31C177.743 14.4315 164.331 1 147.787 1C131.242 1 117.83 14.4315 117.83 31C117.83 47.5685 131.242 61 147.787 61Z" fill="url(#paint0_linear_57_1105)" stroke="#E34604" stroke-width="2"/>
<g id="Group_3">
<path id="Vector_6" d="M144.934 38.7143C144.934 36.4286 145.219 35 145.504 34.1429C145.79 33.2857 146.931 32.1429 148.357 30.7143C149.784 29 150.925 27.5714 151.496 26.7143C152.066 25.8571 152.352 24.7143 152.352 23.2857C152.352 21.5714 151.781 20.4286 150.925 19.5714C150.354 18.4286 149.213 18.1429 147.501 18.1429C146.075 18.1429 144.934 18.4286 144.078 19.2857C142.937 19.8571 142.651 21 142.651 22.4286H138.372C138.372 19.8571 139.228 18.1429 140.939 16.4286C142.651 15 144.934 14.1429 147.787 14.1429C150.925 14.1429 153.207 15 154.919 16.4286C156.631 17.8571 157.487 20.1429 157.487 22.7143C157.487 24.7143 156.916 26.4286 155.775 28.1429C154.634 29.8571 153.207 31.5714 151.496 33.2857C150.64 34.1429 150.069 34.7143 150.069 35.5714C149.784 36.1429 149.784 37.2857 149.784 38.7143H144.934ZM149.499 48.1429H144.648V43.2857H149.499V48.1429Z" fill="white"/>
</g>
</g>
<path id="Vector 1" d="M114 126V169" stroke="#D1D1D1" stroke-width="2"/>
</g>
<defs>
<linearGradient id="paint0_linear_57_1105" x1="147.787" y1="1" x2="147.787" y2="61" gradientUnits="userSpaceOnUse">
<stop stop-color="#FD4F0A"/>
<stop offset="1" stop-color="#E34604"/>
</linearGradient>
</defs>
</svg>
