<svg width="12" height="12" viewBox="0 0 12 12" fill="none" xmlns="http://www.w3.org/2000/svg">
<path d="M8 1H4C2.3455 1 1 2.3455 1 4V10.5C1 10.6326 1.05268 10.7598 1.14645 10.8536C1.24021 10.9473 1.36739 11 1.5 11H8C9.6545 11 11 9.6545 11 8V4C11 2.3455 9.6545 1 8 1ZM10 8C10 9.103 9.103 10 8 10H2V4C2 2.897 2.897 2 4 2H8C9.103 2 10 2.897 10 4V8Z" fill="#32A9FF"/>
<path d="M3.5 7.4935V8.493H4.4995L7.264 5.732L6.265 4.733L3.5 7.4935ZM7.735 5.261L6.736 4.261L7.4975 3.5L8.4975 4.4995L7.735 5.261Z" fill="#32A9FF"/>
</svg>
