<svg width="198" height="164" viewBox="0 0 198 164" fill="none" xmlns="http://www.w3.org/2000/svg">
<path d="M56.1024 31.5223H30.4066C-10.1355 31.5223 -10.1355 93.7164 30.4066 93.7164H52.6763C52.6763 93.7164 34.9748 154.764 107.494 163.936C107.494 163.936 133.761 165.655 148.036 151.325C152.033 147.312 157.172 145.019 162.597 145.019H171.448C171.448 145.019 198 139.001 198 109.767C198 80.5324 172.304 73.3672 172.304 73.3672C172.304 73.3672 189.637 31.5223 148.036 26.0036C148.036 26.0036 137.758 -3.15735 102.64 0.281955C67.5227 3.72126 56.1024 31.5223 56.1024 31.5223Z" fill="#EBEDF6"/>
<path d="M71.9562 46.8889C71.8847 49.8954 69.4568 52.3292 66.4576 52.3292C63.4583 52.3292 60.959 49.8954 60.959 46.8174V33.5747C60.959 30.783 63.2441 28.4923 66.0291 28.4923H124.514L142.938 10.0241C145.223 7.7335 149.079 9.37989 149.079 12.6011V151.757C149.079 154.978 145.152 156.624 142.938 154.334L124.371 135.722H66.0291C63.2441 135.722 60.959 133.432 60.959 130.64V117.755C60.959 114.749 63.3869 112.243 66.4576 112.243H66.529C69.5282 112.243 72.0276 114.677 72.0276 117.755V124.627H121.158V40.1602H72.0276L71.9562 46.8889Z" fill="url(#paint0_linear_121_183)"/>
<path d="M44.1622 84.1661L77.5838 107.478C80.0067 109.156 84.0686 107.958 84.0686 105.56V95.1929H106.872C108.654 95.1929 110.079 94.1741 110.079 92.9156V71.8208C110.079 70.5623 108.654 69.5436 106.872 69.5436H84.5675V58.8164C84.5675 56.4193 80.5056 55.2207 78.1539 56.8388L44.0909 80.3306C42.6657 81.4093 42.6657 83.0873 44.1622 84.1661Z" fill="url(#paint1_linear_121_183)"/>
<defs>
<linearGradient id="paint0_linear_121_183" x1="149.079" y1="82.179" x2="63.1842" y2="82.179" gradientUnits="userSpaceOnUse">
<stop stop-color="#E51D04"/>
<stop offset="1" stop-color="#FD4F0A"/>
</linearGradient>
<linearGradient id="paint1_linear_121_183" x1="43.022" y1="82.2484" x2="109.931" y2="82.2484" gradientUnits="userSpaceOnUse">
<stop stop-color="#7D7D7D"/>
<stop offset="1" stop-color="#373737"/>
</linearGradient>
</defs>
</svg>
