<svg width="16" height="16" viewBox="0 0 16 16" fill="none" xmlns="http://www.w3.org/2000/svg">
<path fill-rule="evenodd" clip-rule="evenodd" d="M11.3334 6.66667C11.3334 7.2795 11.2127 7.88634 10.9781 8.45252C10.7436 9.01871 10.3999 9.53316 9.96654 9.9665C9.5332 10.3998 9.01875 10.7436 8.45256 10.9781C7.88638 11.2126 7.27954 11.3333 6.66671 11.3333C6.05387 11.3333 5.44704 11.2126 4.88085 10.9781C4.31466 10.7436 3.80021 10.3998 3.36687 9.9665C2.93353 9.53316 2.58979 9.01871 2.35527 8.45252C2.12075 7.88634 2.00004 7.2795 2.00004 6.66667C2.00004 5.42899 2.4917 4.24201 3.36687 3.36684C4.24204 2.49167 5.42903 2 6.66671 2C7.90438 2 9.09137 2.49167 9.96654 3.36684C10.8417 4.24201 11.3334 5.42899 11.3334 6.66667ZM10.412 11.3547C9.21393 12.3118 7.69479 12.7739 6.16662 12.6461C4.63845 12.5182 3.21724 11.81 2.19489 10.667C1.17254 9.52399 0.626644 8.03291 0.669318 6.49999C0.711992 4.96707 1.34 3.50867 2.42435 2.42431C3.50871 1.33996 4.96711 0.711953 6.50003 0.669279C8.03295 0.626605 9.52403 1.1725 10.667 2.19485C11.81 3.2172 12.5182 4.63841 12.6461 6.16658C12.774 7.69475 12.3119 9.21389 11.3547 10.412L15.1387 14.1947C15.2007 14.2566 15.2499 14.3302 15.2834 14.4112C15.3169 14.4922 15.3342 14.579 15.3342 14.6667C15.3342 14.7543 15.3169 14.8411 15.2834 14.9221C15.2499 15.0031 15.2007 15.0767 15.1387 15.1387C15.0767 15.2007 15.0031 15.2498 14.9222 15.2834C14.8412 15.3169 14.7544 15.3342 14.6667 15.3342C14.579 15.3342 14.4922 15.3169 14.4113 15.2834C14.3303 15.2498 14.2567 15.2007 14.1947 15.1387L10.4134 11.3547H10.412Z" fill="#FD4F0A"/>
</svg>
