<svg width="13" height="13" viewBox="0 0 13 13" fill="none" xmlns="http://www.w3.org/2000/svg">
<path d="M8.93717 6.5C9.7273 6.5 10.4851 6.81388 11.0438 7.37258C11.6025 7.93128 11.9163 8.68905 11.9163 9.47917C11.9163 10.2693 11.6025 11.0271 11.0438 11.5858C10.4851 12.1445 9.7273 12.4583 8.93717 12.4583C8.14705 12.4583 7.38929 12.1445 6.83059 11.5858C6.27188 11.0271 5.95801 10.2693 5.95801 9.47917C5.95801 8.68905 6.27188 7.93128 6.83059 7.37258C7.38929 6.81388 8.14705 6.5 8.93717 6.5ZM6.49967 0.947922C6.94933 0.947892 7.38196 1.11993 7.7088 1.42874C8.03564 1.73756 8.23193 2.15973 8.25738 2.60867L8.26009 2.70834H11.1038C11.2068 2.70837 11.3059 2.74747 11.3811 2.81774C11.4563 2.88801 11.502 2.98421 11.509 3.0869C11.516 3.18959 11.4838 3.29111 11.4189 3.37096C11.3539 3.4508 11.2611 3.50302 11.1591 3.51705L11.1038 3.52084H10.6727L10.4018 6.2763C10.1492 6.16066 9.88376 6.07555 9.61101 6.0228L9.85638 3.52084H3.14242L3.82872 10.4932C3.84391 10.6487 3.91247 10.7943 4.02275 10.905C4.13304 11.0158 4.27825 11.085 4.43376 11.1009L4.50255 11.1042H5.81338C5.9683 11.4026 6.16547 11.6762 6.39622 11.9167H4.50255C4.14909 11.9167 3.80715 11.791 3.53784 11.562C3.26854 11.3331 3.08941 11.0159 3.03247 10.667L3.02001 10.5728L2.32613 3.52084H1.89551C1.79734 3.52083 1.70249 3.48528 1.6285 3.42076C1.55452 3.35623 1.5064 3.2671 1.49305 3.16984L1.48926 3.11459C1.48926 3.01642 1.52481 2.92157 1.58934 2.84758C1.65387 2.7736 1.743 2.72548 1.84026 2.71213L1.89551 2.70834H4.73926C4.73926 2.24145 4.92473 1.79368 5.25487 1.46354C5.58501 1.13339 6.03278 0.947922 6.49967 0.947922ZM7.42917 7.90238L7.39126 7.93325L7.36038 7.97117C7.32917 8.0164 7.31245 8.07005 7.31245 8.125C7.31245 8.17996 7.32917 8.23361 7.36038 8.27884L7.39126 8.31675L8.55422 9.47917L7.39126 10.6416L7.36038 10.6795C7.32917 10.7247 7.31245 10.7784 7.31245 10.8333C7.31245 10.8883 7.32917 10.9419 7.36038 10.9872L7.39126 11.0251L7.42917 11.056C7.4744 11.0872 7.52806 11.1039 7.58301 11.1039C7.63796 11.1039 7.69161 11.0872 7.73684 11.056L7.77476 11.0251L8.93717 9.86213L10.0996 11.0251L10.1375 11.056C10.1827 11.0872 10.2364 11.1039 10.2913 11.1039C10.3463 11.1039 10.3999 11.0872 10.4452 11.056L10.4831 11.0251L10.514 10.9872C10.5452 10.9419 10.5619 10.8883 10.5619 10.8333C10.5619 10.7784 10.5452 10.7247 10.514 10.6795L10.4831 10.6416L9.32013 9.47917L10.4831 8.31675L10.514 8.27884C10.5452 8.23361 10.5619 8.17996 10.5619 8.125C10.5619 8.07005 10.5452 8.0164 10.514 7.97117L10.4831 7.93325L10.4452 7.90238C10.3999 7.87117 10.3463 7.85445 10.2913 7.85445C10.2364 7.85445 10.1827 7.87117 10.1375 7.90238L10.0996 7.93325L8.93717 9.09621L7.77476 7.93325L7.73684 7.90238C7.69829 7.87567 7.65346 7.85943 7.60674 7.85526C7.56002 7.85108 7.51302 7.8591 7.47034 7.87855L7.42917 7.90238ZM6.49967 1.76042C6.26178 1.76043 6.03259 1.84989 5.85759 2.01104C5.68259 2.17219 5.57458 2.39325 5.55501 2.63034L5.55176 2.70834H7.44759C7.44759 2.45694 7.34772 2.21583 7.16995 2.03806C6.99218 1.86029 6.75108 1.76042 6.49967 1.76042Z" fill="#F20519"/>
</svg>
