<svg width="25" height="20" viewBox="0 0 25 20" fill="none" xmlns="http://www.w3.org/2000/svg">
<path d="M25 2.43542C24.0638 2.84181 23.0709 3.10856 22.0541 3.22681C23.1132 2.6048 23.9264 1.61982 24.3093 0.446234C23.3025 1.03167 22.201 1.44415 21.0523 1.66585C20.1167 0.689105 18.7838 0.0786743 17.3085 0.0786743C14.4759 0.0786743 12.1793 2.32901 12.1793 5.10451C12.1793 5.49848 12.2247 5.88202 12.3121 6.24997C8.04941 6.0403 4.27012 4.03944 1.74033 0.998674C1.29893 1.74097 1.046 2.60442 1.046 3.52537C1.046 5.2691 1.95156 6.80738 3.32773 7.70872C2.51323 7.68373 1.71665 7.46816 1.00449 7.08001C1.0042 7.10107 1.0042 7.12212 1.0042 7.14327C1.0042 9.57839 2.77217 11.6098 5.11846 12.0715C4.36317 12.2728 3.57093 12.3022 2.80225 12.1576C3.45488 14.1544 5.34912 15.6074 7.59346 15.6481C5.83809 16.996 3.62646 17.7995 1.22354 17.7995C0.809473 17.7995 0.40127 17.7757 0 17.7293C2.26982 19.1553 4.96582 19.9874 7.8623 19.9874C17.2966 19.9874 22.4555 12.3289 22.4555 5.68738C22.4555 5.46939 22.4506 5.25265 22.4406 5.03714C23.4448 4.32584 24.3114 3.44481 25 2.43542Z" fill="#55ACEE"/>
</svg>
